# xmcd CD database file
#
# Track frame offsets:
#	150
#	12432
#	29912
#	46797
#	60067
#	75105
#	91962
#	107252
#	124970
#	144847
#	161690
#	178955
#	196267
#	215100
#
# Disc length: 3110 seconds
#
# Revision: 1
# Processed by: cddbd v1.4PL0 Copyright (c) Steve Scherf et al.
# Submitted via: CDex 1.51
#
DISCID=b20c240e
DTITLE=Bruno and Marrone - Cilada de Amor
DYEAR=1900
DGENRE=Sertanejo
TTITLE0=Feriado Nacional 
TTITLE1=Bar Solidão 
TTITLE2=Parabens pro nosso Amor
TTITLE3=Olha o Trem Querendo 
TTITLE4=So Sei te Amar
TTITLE5=Vida Vazia
TTITLE6=Tchau, Amor
TTITLE7=Dor e Saudade
TTITLE8=Cilada de Amor
TTITLE9=Como eu te Amo
TTITLE10=Choro 
TTITLE11=Será que me Esqueceu
TTITLE12=Agarrada em mim 
TTITLE13=Mais uma Vez
EXTD=
EXTT0=
EXTT1=
EXTT2=
EXTT3=
EXTT4=
EXTT5=
EXTT6=
EXTT7=
EXTT8=
EXTT9=
EXTT10=
EXTT11=
EXTT12=
EXTT13=
PLAYORDER=
